<svg xmlns="http://www.w3.org/2000/svg" class="graphdiagram" viewBox="-1244.0764529267385 -543.4217110858609 1678.1349281806745 988.8434221717218"><g class="layer relationships"><g class="related-pair"><g class="relationship" transform="translate(-1115,-49) rotate(0)"><path class="relationship" d="M 140.0764529267385 4 L 612.5683345862299 4 L 612.5683345862299 16 L 644.5683345862299 0 L 612.5683345862299 -16 L 612.5683345862299 -4 L 140.0764529267385 -4 Z" fill="rgb(0, 0, 0)" stroke="rgb(51, 51, 51)" stroke-width="0px"/><text class="type" text-anchor="middle" baseline-shift="30%" alignment-baseline="alphabetic" x="376.3223937564842" y="0" font-size="50px" font-family="'Gill Sans', 'Gill Sans MT', Calibri, sans-serif">:PURCHASED</text></g></g><g class="related-pair"><g class="relationship" transform="translate(-366.6962890625,-49) rotate(0)"><path class="relationship" d="M 103.73537635127013 4 L 542.2963221093453 4 L 542.2963221093453 16 L 574.2963221093453 0 L 542.2963221093453 -16 L 542.2963221093453 -4 L 103.73537635127013 -4 Z" fill="rgb(0, 0, 0)" stroke="rgb(51, 51, 51)" stroke-width="0px"/><text class="type" text-anchor="middle" baseline-shift="30%" alignment-baseline="alphabetic" x="323.0158492303077" y="0" font-size="50px" font-family="'Gill Sans', 'Gill Sans MT', Calibri, sans-serif">:PRODUCT</text></g></g></g><g class="layer nodes"><circle class="node node-id-0" r="125.07645292673851" fill="rgb(255, 255, 255)" stroke="rgb(0, 0, 0)" stroke-width="8px" cx="-1115" cy="-49"/><circle class="node node-id-1" r="88.73537635127013" fill="rgb(255, 255, 255)" stroke="rgb(0, 0, 0)" stroke-width="8px" cx="-366.6962890625" cy="-49"/><g class="caption"><text class="caption node" text-anchor="middle" alignment-baseline="central" x="-1115" y="-49" font-size="50px" font-family="'Gill Sans', 'Gill Sans MT', Calibri, sans-serif">Customer</text></g><g class="caption"><text class="caption node" text-anchor="middle" alignment-baseline="central" x="-366.6962890625" y="-49" font-size="50px" font-family="'Gill Sans', 'Gill Sans MT', Calibri, sans-serif">Order</text></g><circle class="node node-id-2" r="103.72922110354536" fill="rgb(255, 255, 255)" stroke="rgb(0, 0, 0)" stroke-width="8px" cx="326.3292541503906" cy="-49"/><g class="caption"><text class="caption node" text-anchor="middle" alignment-baseline="central" x="326.3292541503906" y="-49" font-size="50px" font-family="'Gill Sans', 'Gill Sans MT', Calibri, sans-serif">Product</text></g></g><g class="layer properties"/><g class="layer overlay"><circle class="node overlay" r="129.0764529267385" stroke="none" fill="rgba(255, 255, 255, 0)" cx="-1115" cy="-49"/><circle class="node overlay" r="92.73537635127013" stroke="none" fill="rgba(255, 255, 255, 0)" cx="-366.6962890625" cy="-49"/><circle class="node ring" r="134.0764529267385" fill="none" stroke="rgba(255, 255, 255, 0)" stroke-width="10px" cx="-1115" cy="-49"/><circle class="node ring" r="97.73537635127013" fill="none" stroke="rgba(255, 255, 255, 0)" stroke-width="10px" cx="-366.6962890625" cy="-49"/><path class="relationship overlay" fill="rgba(255, 255, 255, 0)" stroke="rgba(255, 255, 255, 0)" stroke-width="10px" transform="translate(-1115,-49) rotate(0)" d="M 140.0764529267385 4 L 612.5683345862299 4 L 612.5683345862299 16 L 644.5683345862299 0 L 612.5683345862299 -16 L 612.5683345862299 -4 L 140.0764529267385 -4 Z"/><circle class="node overlay" r="107.72922110354536" stroke="none" fill="rgba(255, 255, 255, 0)" cx="326.3292541503906" cy="-49"/><circle class="node ring" r="112.72922110354536" fill="none" stroke="rgba(255, 255, 255, 0)" stroke-width="10px" cx="326.3292541503906" cy="-49"/><path class="relationship overlay" fill="rgba(255, 255, 255, 0)" stroke="rgba(255, 255, 255, 0)" stroke-width="10px" transform="translate(-366.6962890625,-49) rotate(0)" d="M 103.73537635127013 4 L 542.2963221093453 4 L 542.2963221093453 16 L 574.2963221093453 0 L 542.2963221093453 -16 L 542.2963221093453 -4 L 103.73537635127013 -4 Z"/></g></svg>