<svg xmlns="http://www.w3.org/2000/svg" class="graphdiagram" viewBox="-1269.5089888364014 -672.8294617122658 1680 978"><g class="layer relationships"><g class="related-pair"><g class="relationship" transform="translate(-974,-24) rotate(-32.616731360147995)"><path class="relationship" d="M 140.0764529267385 4 L 524.7264460145905 4 L 524.7264460145905 16 L 556.7264460145905 0 L 524.7264460145905 -16 L 524.7264460145905 -4 L 140.0764529267385 -4 Z" fill="rgb(0, 0, 0)" stroke="rgb(51, 51, 51)" stroke-width="0px"/><text class="type" text-anchor="middle" baseline-shift="30%" alignment-baseline="alphabetic" x="332.4014494706645" y="0" font-size="50px" font-family="'Gill Sans', 'Gill Sans MT', Calibri, sans-serif">:PURCHASED</text></g></g><g class="related-pair"><g class="relationship" transform="translate(-417.6962890625,-380) rotate(32.7235694241732)"><path class="relationship" d="M 103.73537635127013 4 L 507.81485679279297 4 L 507.81485679279297 16 L 539.814856792793 0 L 507.81485679279297 -16 L 507.81485679279297 -4 L 103.73537635127013 -4 Z" fill="rgb(0, 0, 0)" stroke="rgb(51, 51, 51)" stroke-width="0px"/><text class="type" text-anchor="middle" baseline-shift="30%" alignment-baseline="alphabetic" x="305.77511657203155" y="0" font-size="50px" font-family="'Gill Sans', 'Gill Sans MT', Calibri, sans-serif">:PRODUCT</text></g></g><g class="related-pair"><g class="relationship" transform="translate(-974,-24) rotate(0)"><path class="relationship" d="M 140.0764529267385 4 L 959.6000330468453 4 L 959.6000330468453 16 L 991.6000330468453 0 L 959.6000330468453 -16 L 959.6000330468453 -4 L 140.0764529267385 -4 Z" fill="rgb(0, 0, 0)" stroke="rgb(51, 51, 51)" stroke-width="0px"/><text class="type" text-anchor="middle" baseline-shift="30%" alignment-baseline="alphabetic" x="549.8382429867919" y="0" font-size="50px" font-family="'Gill Sans', 'Gill Sans MT', Calibri, sans-serif">:RATES</text></g></g></g><g class="layer nodes"><circle class="node node-id-0" r="125.07645292673851" fill="rgb(255, 255, 255)" stroke="rgb(0, 0, 0)" stroke-width="8px" cx="-974" cy="-24"/><circle class="node node-id-1" r="88.73537635127013" fill="rgb(255, 255, 255)" stroke="rgb(0, 0, 0)" stroke-width="8px" cx="-417.6962890625" cy="-380"/><circle class="node node-id-2" r="103.72922110354536" fill="rgb(255, 255, 255)" stroke="rgb(0, 0, 0)" stroke-width="8px" cx="136.32925415039062" cy="-24"/><g class="caption"><text class="caption node" text-anchor="middle" alignment-baseline="central" x="-974" y="-24" font-size="50px" font-family="'Gill Sans', 'Gill Sans MT', Calibri, sans-serif">Customer</text></g><g class="caption"><text class="caption node" text-anchor="middle" alignment-baseline="central" x="-417.6962890625" y="-380" font-size="50px" font-family="'Gill Sans', 'Gill Sans MT', Calibri, sans-serif">Order</text></g><g class="caption"><text class="caption node" text-anchor="middle" alignment-baseline="central" x="136.32925415039062" y="-24" font-size="50px" font-family="'Gill Sans', 'Gill Sans MT', Calibri, sans-serif">Product</text></g></g><g class="layer properties"><g class="speech-bubble relationship-speech-bubble" transform="translate(-424.1617570132081,-24) "><path class="speech-bubble-outline" transform="scale(1,1) " d="M 0 0 L -10 20 L -117.10205078125 20 A 10 10 0 0 0 -127.10205078125 30 L -127.10205078125 80 A 10 10 0 0 0 -117.10205078125 90 L 117.10205078125 90 A 10 10 0 0 0 127.10205078125 80 L 127.10205078125 30 A 10 10 0 0 0 117.10205078125 20 L 10 20 Z" fill="rgb(255, 255, 255)" stroke="rgb(0, 0, 0)" stroke-width="3px"/><text class="speech-bubble-content property-key" x="39.48974609375" y="55" alignment-baseline="central" text-anchor="end" font-size="50px" font-family="'Gill Sans', 'Gill Sans MT', Calibri, sans-serif" xml:space="preserve">{rating: </text><text class="speech-bubble-content property-value" x="39.48974609375" y="55" alignment-baseline="central" font-size="50px" font-family="'Gill Sans', 'Gill Sans MT', Calibri, sans-serif">0.0}</text></g></g><g class="layer overlay"><circle class="node overlay" r="129.0764529267385" stroke="none" fill="rgba(255, 255, 255, 0)" cx="-974" cy="-24"/><circle class="node overlay" r="92.73537635127013" stroke="none" fill="rgba(255, 255, 255, 0)" cx="-417.6962890625" cy="-380"/><circle class="node overlay" r="107.72922110354536" stroke="none" fill="rgba(255, 255, 255, 0)" cx="136.32925415039062" cy="-24"/><circle class="node ring" r="134.0764529267385" fill="none" stroke="rgba(255, 255, 255, 0)" stroke-width="10px" cx="-974" cy="-24"/><circle class="node ring" r="97.73537635127013" fill="none" stroke="rgba(255, 255, 255, 0)" stroke-width="10px" cx="-417.6962890625" cy="-380"/><circle class="node ring" r="112.72922110354536" fill="none" stroke="rgba(255, 255, 255, 0)" stroke-width="10px" cx="136.32925415039062" cy="-24"/><path class="relationship overlay" fill="rgba(255, 255, 255, 0)" stroke="rgba(255, 255, 255, 0)" stroke-width="10px" transform="translate(-974,-24) rotate(-32.616731360147995)" d="M 140.0764529267385 4 L 524.7264460145905 4 L 524.7264460145905 16 L 556.7264460145905 0 L 524.7264460145905 -16 L 524.7264460145905 -4 L 140.0764529267385 -4 Z"/><path class="relationship overlay" fill="rgba(255, 255, 255, 0)" stroke="rgba(255, 255, 255, 0)" stroke-width="10px" transform="translate(-417.6962890625,-380) rotate(32.7235694241732)" d="M 103.73537635127013 4 L 507.81485679279297 4 L 507.81485679279297 16 L 539.814856792793 0 L 507.81485679279297 -16 L 507.81485679279297 -4 L 103.73537635127013 -4 Z"/><path class="relationship overlay" fill="rgba(255, 255, 255, 0)" stroke="rgba(255, 255, 255, 0)" stroke-width="10px" transform="translate(-974,-24) rotate(0)" d="M 140.0764529267385 4 L 959.6000330468453 4 L 959.6000330468453 16 L 991.6000330468453 0 L 959.6000330468453 -16 L 959.6000330468453 -4 L 140.0764529267385 -4 Z"/></g></svg>